<svg width="233" height="36" viewBox="0 0 233 36" fill="none" xmlns="http://www.w3.org/2000/svg">
<g id="logo">
<g id="Layer 1">
<path id="Vector" d="M36.4525 4.65544V4.77228L18.2278 9.42472L0 4.77228V4.65544L18.2278 0L36.4525 4.65544Z" fill="black"/>
<path id="Vector_2" d="M36.4525 11.8574V16.7495L25.9222 19.4367L22.7786 15.3505L36.4525 11.8574Z" fill="black"/>
<path id="Vector_3" d="M0 11.8574L13.6709 15.3475L10.5272 19.4367L0 16.7495V11.8574Z" fill="black"/>
<path id="Vector_4" d="M36.4556 26.0264V30.9185L31.3167 32.2306L28.7981 32.8747C29.5335 31.2569 29.8729 29.4951 29.7895 27.728L32.0526 27.1528L36.4556 26.0264Z" fill="black"/>
<path id="Vector_5" d="M7.65445 32.8747L5.12965 32.2276L0 30.9185V26.0264L4.39376 27.1498L6.663 27.728C6.57931 29.4951 6.91872 31.257 7.65445 32.8747Z" fill="black"/>
<path id="Vector_6" d="M36.4556 18.9453V23.8344L29.4847 25.6139C29.1241 24.1327 28.4555 22.739 27.5203 21.5187L27.3325 21.27L36.4556 18.9453Z" fill="black"/>
<path id="Vector_7" d="M0 18.9453L9.11698 21.27L8.93532 21.5067C8.00987 22.7134 7.34577 24.0903 6.98322 25.554C6.98322 25.572 6.98322 25.5929 6.96782 25.6139L0 23.8344V18.9453Z" fill="black"/>
<path id="Vector_8" d="M36.4526 4.77246V9.66457L21.3684 13.5141L18.3171 9.54474L18.2278 9.4279V9.42491L36.4526 4.77246Z" fill="black"/>
<path id="Vector_9" d="M18.2278 9.42491V9.4279H18.2247L18.1324 9.54474L15.081 13.5141L0 9.66457V4.77246L18.2278 9.42491Z" fill="black"/>
<path id="Vector_10" d="M26.1501 28.6608C26.0999 29.754 25.8089 30.8239 25.2968 31.7982C24.7848 32.7724 24.0635 33.6283 23.1819 34.3078C22.6198 34.7463 21.9981 35.1072 21.3345 35.3803C20.0127 35.9287 18.5628 36.1184 17.1391 35.929C15.7154 35.7396 14.371 35.1783 13.249 34.3048C13.0189 34.1269 12.7999 33.9359 12.5932 33.7326C11.6482 32.7983 10.9609 31.647 10.5949 30.3855C10.2289 29.124 10.1961 27.793 10.4994 26.5158C10.4994 26.4768 10.5179 26.4379 10.5272 26.399C10.7742 25.3985 11.2267 24.4569 11.8573 23.6309L12.9319 22.2438L14.3421 20.4074L17.4796 16.3212L18.2247 15.3535L18.9698 16.3241L22.1104 20.4104L23.5206 22.2468L24.5829 23.6279C25.2414 24.4856 25.7072 25.4685 25.95 26.5128C26.1158 27.2157 26.1811 27.9375 26.144 28.6578" fill="black"/>
<path id="Vector_11" d="M52.9284 24.6982C51.6995 24.0677 50.6727 23.1204 49.9602 21.9601C49.2313 20.7622 48.8572 19.3915 48.8795 17.9996C48.8577 16.6088 49.2317 15.2391 49.9602 14.0422C50.6718 12.8812 51.6989 11.9337 52.9284 11.3041C54.235 10.6332 55.6941 10.2933 57.1713 10.3155C58.4034 10.2987 59.6258 10.5302 60.7614 10.9955C61.8059 11.4296 62.7293 12.0991 63.4556 12.9488L61.1863 14.9799C60.7217 14.4279 60.1353 13.9848 59.4706 13.6835C58.8059 13.3822 58.08 13.2304 57.3468 13.2394C56.464 13.2221 55.5918 13.4286 54.8158 13.8385C54.0854 14.2306 53.4835 14.8152 53.0793 15.5251C52.6706 16.2851 52.4571 17.13 52.4571 17.9877C52.4571 18.8453 52.6706 19.6903 53.0793 20.4502C53.4791 21.1642 54.0778 21.7539 54.8066 22.1518C55.5831 22.5605 56.4549 22.7669 57.3375 22.751C58.0728 22.7592 58.8004 22.6049 59.4655 22.2998C60.1306 21.9946 60.7158 21.5466 61.1771 20.9894L63.4463 23.0266C62.7219 23.8883 61.7931 24.5658 60.7399 25.0008C59.6007 25.4649 58.3754 25.6954 57.1405 25.6778C55.6706 25.6996 54.2188 25.3607 52.9192 24.6922" fill="black"/>
<path id="Vector_12" d="M73.4162 24.6881C72.1793 24.0554 71.145 23.104 70.4264 21.9379C69.6994 20.747 69.3254 19.3835 69.3457 17.9985C69.3251 16.6144 69.6992 15.2518 70.4264 14.062C71.1442 12.8953 72.1786 11.9437 73.4162 11.3119C74.7427 10.6562 76.2096 10.3145 77.6976 10.3145C79.1855 10.3145 80.6524 10.6562 81.9789 11.3119C83.2249 11.9583 84.2669 12.922 84.9935 14.1001C85.7201 15.2781 86.1039 16.6261 86.1039 18C86.1039 19.3739 85.7201 20.7219 84.9935 21.8999C84.2669 23.078 83.2249 24.0417 81.9789 24.6881C80.6518 25.3419 79.1851 25.6826 77.6976 25.6826C76.21 25.6826 74.7433 25.3419 73.4162 24.6881ZM80.1469 22.1506C80.8671 21.7522 81.4596 21.1673 81.8589 20.461C82.2675 19.7011 82.481 18.8562 82.481 17.9985C82.481 17.1408 82.2675 16.2959 81.8589 15.536C81.4596 14.8305 80.8669 14.2466 80.1469 13.8493C79.3967 13.4521 78.5563 13.244 77.7022 13.244C76.8481 13.244 76.0076 13.4521 75.2574 13.8493C74.5374 14.2466 73.9448 14.8305 73.5455 15.536C73.1368 16.2959 72.9233 17.1408 72.9233 17.9985C72.9233 18.8562 73.1368 19.7011 73.5455 20.461C73.9447 21.1673 74.5373 21.7522 75.2574 22.1506C76.0076 22.5479 76.8481 22.756 77.7022 22.756C78.5563 22.756 79.3967 22.5479 80.1469 22.1506Z" fill="black"/>
<path id="Vector_13" d="M93.5192 10.5684H97.0539V22.6264H104.714V25.4304H93.5192V10.5684Z" fill="black"/>
<path id="Vector_14" d="M114.346 24.6881C113.109 24.0546 112.075 23.1034 111.356 21.938C110.631 20.7462 110.258 19.3831 110.278 17.9985C110.259 16.615 110.632 15.2529 111.356 14.0621C112.074 12.896 113.109 11.9446 114.346 11.3119C115.673 10.6562 117.14 10.3145 118.629 10.3145C120.117 10.3145 121.584 10.6562 122.911 11.3119C124.157 11.959 125.198 12.923 125.924 14.101C126.649 15.2789 127.033 16.6266 127.033 18C127.033 19.3735 126.649 20.7211 125.924 21.8991C125.198 23.077 124.157 24.041 122.911 24.6881C121.584 25.342 120.117 25.6827 118.629 25.6827C117.14 25.6827 115.673 25.342 114.346 24.6881ZM121.076 22.1507C121.797 21.7523 122.391 21.1675 122.791 20.4611C123.198 19.7005 123.41 18.8558 123.41 17.9985C123.41 17.1412 123.198 16.2965 122.791 15.536C122.391 14.8304 121.797 14.2466 121.076 13.8494C120.327 13.4524 119.487 13.2444 118.633 13.2444C117.78 13.2444 116.94 13.4524 116.19 13.8494C115.469 14.2459 114.877 14.83 114.478 15.536C114.069 16.2959 113.856 17.1408 113.856 17.9985C113.856 18.8562 114.069 19.7011 114.478 20.4611C114.876 21.168 115.469 21.7531 116.19 22.1507C116.94 22.5476 117.78 22.7556 118.633 22.7556C119.487 22.7556 120.327 22.5476 121.076 22.1507Z" fill="black"/>
<path id="Vector_15" d="M135.129 10.5696H141.346C142.835 10.5371 144.309 10.8622 145.638 11.5163C146.835 12.11 147.834 13.0221 148.52 14.1466C149.214 15.3165 149.567 16.6484 149.542 17.9991C149.568 19.3499 149.215 20.6821 148.52 21.8517C147.835 22.9779 146.836 23.8912 145.638 24.485C144.313 25.1353 142.845 25.4603 141.361 25.4317H135.129V10.5696ZM141.259 24.0716C142.478 24.0989 143.685 23.8323 144.773 23.2957C145.742 22.8098 146.551 22.0673 147.106 21.1537C147.67 20.1943 147.957 19.1041 147.935 17.9991C147.956 16.8951 147.67 15.8061 147.106 14.8476C146.551 13.9332 145.742 13.1897 144.773 12.7026C143.684 12.1681 142.478 11.9027 141.259 11.9297H136.742V24.0716H141.259Z" fill="black"/>
<path id="Vector_16" d="M168.379 25.4304L164.888 20.6372C164.479 20.6802 164.068 20.7012 163.656 20.7001H159.564V25.4304H157.954V10.5684H163.668C165.618 10.5684 167.146 11.0217 168.25 11.9284C169.354 12.8352 169.908 14.0804 169.91 15.6642C169.944 16.7135 169.626 17.7452 169.004 18.603C168.355 19.4348 167.448 20.0418 166.418 20.3346L170.15 25.4274L168.379 25.4304ZM167.092 18.4023C167.89 17.7522 168.293 16.8385 168.293 15.6642C168.293 14.4898 167.89 13.5372 167.092 12.8931C166.295 12.249 165.134 11.9284 163.622 11.9284H159.564V19.3789H163.622C165.135 19.3789 166.292 19.0534 167.092 18.4023Z" fill="black"/>
<path id="Vector_17" d="M181.09 24.5662C179.893 23.9422 178.895 23.0093 178.208 21.87C177.509 20.6966 177.151 19.3612 177.17 18.0055C177.151 16.6507 177.509 15.3161 178.208 14.1439C178.895 13.0046 179.893 12.0717 181.09 11.4477C182.355 10.8034 183.762 10.4668 185.191 10.4668C186.619 10.4668 188.026 10.8034 189.292 11.4477C190.483 12.0752 191.476 13.0076 192.162 14.1439C192.866 15.3187 193.228 16.6578 193.209 18.0175C193.224 19.3701 192.862 20.7014 192.162 21.87C191.476 23.0064 190.483 23.9387 189.292 24.5662C188.026 25.2106 186.619 25.5472 185.191 25.5472C183.762 25.5472 182.355 25.2106 181.09 24.5662ZM188.479 23.3679C189.438 22.8523 190.231 22.088 190.77 21.16C191.311 20.195 191.594 19.1135 191.594 18.0145C191.594 16.9154 191.311 15.8339 190.77 14.8689C190.232 13.9402 189.439 13.1757 188.479 12.661C187.47 12.1378 186.345 11.8641 185.202 11.8641C184.058 11.8641 182.933 12.1378 181.924 12.661C180.958 13.175 180.158 13.9392 179.612 14.8689C179.063 15.8314 178.775 16.9139 178.775 18.0145C178.775 19.1151 179.063 20.1975 179.612 21.16C180.157 22.0883 180.955 22.8523 181.918 23.3679C182.927 23.8891 184.053 24.1616 185.195 24.1616C186.338 24.1616 187.464 23.8891 188.473 23.3679" fill="black"/>
<path id="Vector_18" d="M211.929 11.9284C213.033 12.8332 213.586 14.0784 213.586 15.6642C213.586 17.2499 213.033 18.4922 211.929 19.3909C210.825 20.2897 209.298 20.739 207.348 20.739H203.243V25.4304H201.63V10.5684H207.348C209.298 10.5684 210.825 11.0217 211.929 11.9284ZM210.771 18.3903C211.572 17.7492 211.972 16.8405 211.972 15.6642C211.972 14.4878 211.572 13.5601 210.771 12.8811C209.971 12.236 208.814 11.9145 207.301 11.9165H203.243V19.346H207.301C208.816 19.346 209.973 19.0234 210.771 18.3784" fill="black"/>
<path id="Vector_19" d="M223.044 25.0274C222.138 24.7533 221.311 24.2726 220.633 23.6254L221.268 22.4271C221.896 23.0118 222.647 23.4573 223.469 23.7332C224.378 24.0605 225.339 24.2259 226.308 24.2215C227.672 24.2215 228.7 23.9759 229.387 23.4876C229.707 23.2787 229.968 22.9957 230.147 22.6641C230.326 22.3325 230.417 21.9628 230.412 21.5883C230.426 21.3265 230.383 21.0648 230.287 20.8198C230.191 20.5749 230.044 20.352 229.855 20.1653C229.466 19.8003 229.001 19.5213 228.491 19.3474C227.753 19.1019 227.003 18.8929 226.243 18.7213C225.31 18.5047 224.392 18.2316 223.494 17.9034C222.818 17.6483 222.215 17.2371 221.739 16.7051C221.224 16.09 220.963 15.3104 221.006 14.5182C221.001 13.7913 221.215 13.079 221.622 12.4691C222.085 11.8096 222.737 11.297 223.497 10.9952C224.494 10.5996 225.565 10.4118 226.641 10.444C227.505 10.4409 228.365 10.5559 229.196 10.7855C229.97 10.9902 230.704 11.316 231.37 11.7501L230.822 13.0024C230.19 12.5986 229.498 12.2905 228.771 12.0886C228.077 11.8903 227.358 11.7895 226.634 11.7891C225.296 11.7891 224.288 12.0407 223.611 12.544C223.297 12.7642 223.043 13.0549 222.869 13.3913C222.695 13.7277 222.607 14.0999 222.613 14.4763C222.601 14.7391 222.644 15.0015 222.739 15.2477C222.834 15.4939 222.98 15.7187 223.167 15.9083C223.563 16.2843 224.041 16.568 224.565 16.7381C225.126 16.9298 225.877 17.1365 226.825 17.3642C227.746 17.5751 228.653 17.8402 229.541 18.1581C230.217 18.4137 230.819 18.8249 231.296 19.3564C231.803 19.9635 232.06 20.7323 232.017 21.5134C232.026 22.2399 231.811 22.9525 231.401 23.5595C230.928 24.2217 230.264 24.7318 229.492 25.0244C228.479 25.4125 227.396 25.594 226.308 25.5577C225.197 25.5617 224.094 25.3824 223.044 25.0274Z" fill="black"/>
</g>
</g>
</svg>
