<svg width="40" height="40" viewBox="0 0 40 40" fill="none" xmlns="http://www.w3.org/2000/svg">
<g id="heroicons-solid/server-stack">
<g id="Union">
<path d="M9.17835 6.74604C10.1283 5.63781 11.515 5 12.9746 5H27.0251C28.4847 5 29.8715 5.63781 30.8214 6.74604L33.6912 10.0941C33.3032 10.0322 32.9053 10 32.4999 10H7.49987C7.09446 10 6.69657 10.0322 6.30859 10.0941L9.17835 6.74604Z" fill="white"/>
<path fill-rule="evenodd" clip-rule="evenodd" d="M2.5 17.5C2.5 14.7386 4.73858 12.5 7.5 12.5H32.5C35.2614 12.5 37.5 14.7386 37.5 17.5C37.5 20.2614 35.2614 22.5 32.5 22.5H7.5C4.73858 22.5 2.5 20.2614 2.5 17.5ZM27.5 17.5C27.5 18.1904 26.9404 18.75 26.25 18.75C25.5596 18.75 25 18.1904 25 17.5C25 16.8096 25.5596 16.25 26.25 16.25C26.9404 16.25 27.5 16.8096 27.5 17.5ZM31.25 18.75C31.9404 18.75 32.5 18.1904 32.5 17.5C32.5 16.8096 31.9404 16.25 31.25 16.25C30.5596 16.25 30 16.8096 30 17.5C30 18.1904 30.5596 18.75 31.25 18.75Z" fill="white"/>
<path fill-rule="evenodd" clip-rule="evenodd" d="M7.5 25C4.73858 25 2.5 27.2386 2.5 30C2.5 32.7614 4.73858 35 7.5 35H32.5C35.2614 35 37.5 32.7614 37.5 30C37.5 27.2386 35.2614 25 32.5 25H7.5ZM26.25 31.25C26.9404 31.25 27.5 30.6904 27.5 30C27.5 29.3096 26.9404 28.75 26.25 28.75C25.5596 28.75 25 29.3096 25 30C25 30.6904 25.5596 31.25 26.25 31.25ZM32.5 30C32.5 30.6904 31.9404 31.25 31.25 31.25C30.5596 31.25 30 30.6904 30 30C30 29.3096 30.5596 28.75 31.25 28.75C31.9404 28.75 32.5 29.3096 32.5 30Z" fill="white"/>
</g>
</g>
</svg>
