<svg width="40" height="40" viewBox="0 0 40 40" fill="none" xmlns="http://www.w3.org/2000/svg">
<g id="heroicons-solid/archive-box">
<g id="Union">
<path d="M5.625 5C3.89911 5 2.5 6.39911 2.5 8.125V9.375C2.5 11.1009 3.89911 12.5 5.625 12.5H34.375C36.1009 12.5 37.5 11.1009 37.5 9.375V8.125C37.5 6.39911 36.1009 5 34.375 5H5.625Z" fill="#114378"/>
<path fill-rule="evenodd" clip-rule="evenodd" d="M5.14465 15L6.04428 30.2936C6.19974 32.9364 8.38827 35 11.0357 35H28.9639C31.6112 35 33.7998 32.9364 33.9552 30.2936L34.8549 15H5.14465ZM15.4163 21.25C15.4163 20.5596 15.9759 20 16.6663 20H23.3329C24.0233 20 24.5829 20.5596 24.5829 21.25C24.5829 21.9404 24.0233 22.5 23.3329 22.5H16.6663C15.9759 22.5 15.4163 21.9404 15.4163 21.25Z" fill="#114378"/>
</g>
</g>
</svg>
