<svg width="40" height="40" viewBox="0 0 40 40" fill="none" xmlns="http://www.w3.org/2000/svg">
<g id="phone 1">
<path id="phone" d="M27.5867 36.2531C26.8112 36.2524 26.0393 36.1476 25.2917 35.9415C20.2227 34.5371 15.6035 31.845 11.883 28.1269C8.16255 24.4088 5.46753 19.7912 4.06 14.7231C3.74261 13.5747 3.66762 12.3728 3.83977 11.1938C4.01193 10.0148 4.42748 8.88453 5.06 7.8748C5.70036 6.84045 6.54579 5.94822 7.54416 5.25311C8.54254 4.558 9.67271 4.07474 10.865 3.83313C11.6322 3.67307 12.4302 3.75684 13.1474 4.07271C13.8646 4.38859 14.4652 4.92077 14.865 5.5948L17.4717 9.9948C18.0805 11.0237 18.2713 12.247 18.0046 13.4124C17.7379 14.5778 17.0341 15.5964 16.0383 16.2581L14.1533 17.5131C15.9285 21.143 18.86 24.0797 22.4867 25.8615L23.7567 23.9648C24.4219 22.9704 25.4435 22.2695 26.6107 22.0068C27.7778 21.7441 29.0012 21.9397 30.0283 22.5531L34.4317 25.1798C35.0976 25.5777 35.6241 26.1719 35.9389 26.8809C36.2537 27.5899 36.3414 28.379 36.19 29.1398C35.9492 30.3335 35.4662 31.4651 34.7707 32.4647C34.0753 33.4643 33.1822 34.3107 32.1467 34.9515C30.7781 35.8028 29.1984 36.2537 27.5867 36.2531ZM11.63 6.25313C11.5471 6.25319 11.4645 6.26156 11.3833 6.27813C10.5207 6.44802 9.70232 6.79398 8.97938 7.29438C8.25645 7.79479 7.64447 8.43889 7.18167 9.18646C6.73101 9.90477 6.4351 10.7092 6.31285 11.5483C6.1906 12.3874 6.24469 13.2428 6.47167 14.0598C7.76257 18.7102 10.235 22.9474 13.6486 26.3592C17.0622 29.771 21.3006 32.2413 25.9517 33.5298C26.7681 33.7553 27.6226 33.8085 28.4607 33.6859C29.2988 33.5634 30.1023 33.2679 30.82 32.8181C31.5635 32.3592 32.2049 31.7527 32.7045 31.036C33.2042 30.3193 33.5515 29.5077 33.725 28.6515C33.7758 28.3978 33.7467 28.1346 33.6416 27.8981C33.5366 27.6617 33.3607 27.4637 33.1383 27.3315L28.735 24.7048C28.2579 24.419 27.6892 24.3276 27.1465 24.4495C26.6039 24.5714 26.129 24.8974 25.82 25.3598L23.9617 28.1348C23.8002 28.3749 23.5606 28.5518 23.2835 28.6353C23.0064 28.7189 22.709 28.704 22.4417 28.5931C17.4652 26.4906 13.5088 22.5246 11.4183 17.5431C11.3064 17.2754 11.2913 16.977 11.3755 16.6993C11.4598 16.4216 11.6382 16.1819 11.88 16.0215L14.6483 14.1665C15.1109 13.8594 15.438 13.3865 15.5621 12.8453C15.6861 12.3042 15.5977 11.736 15.315 11.2581L12.7067 6.8648C12.5961 6.6776 12.4386 6.52245 12.2498 6.41461C12.061 6.30677 11.8474 6.24997 11.63 6.2498V6.25313Z" fill="#114378"/>
</g>
</svg>
